<svg width="50" height="42" viewBox="0 0 50 42" fill="none" xmlns="http://www.w3.org/2000/svg">
<path d="M30.0812 17.9439C28.3189 16.3511 27.2346 14.1534 27.0401 11.7991L27.0657 11.7829L27.0187 11.4615C26.8381 10.2246 26.9335 8.96296 27.2982 7.76634C27.6615 6.57446 28.2832 5.4762 29.1194 4.54916L29.1246 4.54409L29.1332 4.53477C30.8935 2.62857 33.3216 1.46737 35.9161 1.29155L35.9161 1.29185L35.9331 1.2901L35.9215 1.15296L35.9427 1.28839C37.5009 1.0438 39.0937 1.14383 40.6079 1.58132C42.1221 2.01881 43.5205 2.78299 44.7038 3.81942L44.7067 3.82192C47.1074 6.14003 48.5344 9.27895 48.7006 12.605L48.7004 12.605L48.702 12.6344L48.7022 12.6376L48.7751 12.6339L48.7039 12.6433C49.1573 16.0863 48.8766 19.5859 47.881 22.9139L47.8747 22.9121C47.0434 25.5563 45.7707 28.0425 44.11 30.2664C42.7359 32.0923 41.0922 33.701 39.2349 35.0376L39.137 35.1025L39.1292 35.1077L39.1216 35.1132C37.7487 36.1002 36.3027 36.9821 34.7962 37.7515L29.6844 30.8666C31.4765 29.8209 32.9968 28.365 34.1171 26.6161L34.1171 26.6161L34.1215 26.609L34.1331 26.5903C35.3672 24.7769 36.0395 22.6424 36.0661 20.4522L36.0662 20.4522L36.0661 20.4421L36.0657 20.3922L36.0614 19.8565L35.5273 19.8977C34.5366 19.9741 33.5411 19.8412 32.6061 19.5078C31.6711 19.1744 30.8177 18.6481 30.1019 17.9634L30.1001 17.9617L30.0897 17.9518L30.0898 17.9517L30.0812 17.9439ZM44.4849 30.5751L44.4968 30.584L44.4849 30.5751ZM3.79601 20.6318C1.98585 18.9987 0.889738 16.7274 0.737345 14.3031L0.746458 14.2791L0.727781 14.1507C0.547873 12.9136 0.643796 11.6519 1.0088 10.4553C1.37235 9.26341 1.99399 8.16509 2.82999 7.23778L2.83519 7.2327L2.84382 7.22334C4.60364 5.3166 7.03191 4.15531 9.62647 3.98025L9.62636 3.97848L9.62662 3.98053L9.64369 3.97879L9.63196 3.84062L9.65342 3.97706C11.2115 3.73206 12.8044 3.83189 14.3186 4.26938C15.8274 4.70532 17.2212 5.4658 18.4016 6.4969L18.404 6.4993C20.8137 8.81865 22.2459 11.9639 22.4114 15.2968L22.4113 15.2968L22.4128 15.3261L22.413 15.3294L22.4856 15.3257L22.4148 15.3351C22.8681 18.7782 22.5875 22.2777 21.5919 25.6058L21.5856 25.604C20.7548 28.2479 19.4827 30.7339 17.8227 32.9578C16.4479 34.7839 14.8036 36.3927 12.9457 37.7294L12.8479 37.7943L12.84 37.7995L12.8323 37.8051C11.4598 38.7925 10.0139 39.6745 8.50717 40.4433L3.39657 33.5581C5.18897 32.5114 6.7093 31.0544 7.82926 29.3045L7.82931 29.3045L7.83359 29.2976L7.84515 29.2788C9.0793 27.4654 9.75164 25.331 9.77816 23.1407L9.77826 23.1407L9.77818 23.1306L9.77778 23.0807L9.77347 22.545L9.23928 22.5862C8.24908 22.6627 7.25408 22.5299 6.31961 22.1964C5.38514 21.863 4.53241 21.3365 3.81731 20.6518L3.81526 20.6498L3.80485 20.64L3.80495 20.6399L3.79601 20.6318Z" stroke="#777E91"/>
</svg>
